PathFileType	4	(x/y/z)	S01_M20_T14.trc
DataRate	CameraRate	NumFrames	NumMarkers	Units	OrigDataRate	OrigDataStartFrame	OrigNumFrames
240	240	4	51	mm	240	425	485
Frame#	Time	Sternum			R.Acromium			L.Acromium			Top.Head			R.ASIS			L.ASIS			R.PSIS			L.PSIS			R.Great.Tro			L.Great.Tro			R.Iliac.Crest			L.Iliac.Crest			V.Sacral			R.Thigh.Upper.Post			R.Thigh.Lower.Ant			R.Thigh.Lower.Post			R.Thigh.Upper.Ant			R.Knee.Lat			R.Knee.Med			R.Shank.Upper.Post			R.Shank.Lower.Ant			R.Shank.Lower.Post			R.Shank.Upper.Ant			R.Ankle.Lat			R.Ankle.Med			R.Heel.Upper			R.Heel.Med			R.Heel.Lat			R.Toe.Lat			R.Toe.Med			R.Toe.Tip			L.Thigh.Upper.Post			L.Thigh.Lower.Ant			L.Thigh.Lower.Post			L.Thigh.Upper.Ant			L.Knee.Lat			L.Knee.Med			L.Shank.Upper.Post			L.Shank.Lower.Ant			L.Shank.Lower.Post			L.Shank.Upper.Ant			L.Ankle.Lat			L.Ankle.Med			L.Heel.Upper			L.Heel.Med			L.Heel.Lat			L.Toe.Lat			L.Toe.Med			L.Toe.Tip			Cervical.Spine			Back			
		X1	Y1	Z1	X2	Y2	Z2	X3	Y3	Z3	X4	Y4	Z4	X5	Y5	Z5	X6	Y6	Z6	X7	Y7	Z7	X8	Y8	Z8	X9	Y9	Z9	X10	Y10	Z10	X11	Y11	Z11	X12	Y12	Z12	X13	Y13	Z13	X14	Y14	Z14	X15	Y15	Z15	X16	Y16	Z16	X17	Y17	Z17	X18	Y18	Z18	X19	Y19	Z19	X20	Y20	Z20	X21	Y21	Z21	X22	Y22	Z22	X23	Y23	Z23	X24	Y24	Z24	X25	Y25	Z25	X26	Y26	Z26	X27	Y27	Z27	X28	Y28	Z28	X29	Y29	Z29	X30	Y30	Z30	X31	Y31	Z31	X32	Y32	Z32	X33	Y33	Z33	X34	Y34	Z34	X35	Y35	Z35	X36	Y36	Z36	X37	Y37	Z37	X38	Y38	Z38	X39	Y39	Z39	X40	Y40	Z40	X41	Y41	Z41	X42	Y42	Z42	X43	Y43	Z43	X44	Y44	Z44	X45	Y45	Z45	X46	Y46	Z46	X47	Y47	Z47	X48	Y48	Z48	X49	Y49	Z49	X50	Y50	Z50	X51	Y51	Z51	

425	1.7667	882.99	1234.9	234.22	786.29	1490.8	410.32	760.73	1507.4	82.301	876.63	1797.1	236.31	836.99	989.75	388.78	825.01	986.75	120.57	598.48	1034.4	315.25	587.71	1042.7	212.62	769.95	940.8	479.53	703.19	955.11	52.06	754.38	1090.2	459.26	707.15	1069	55.561	576.33	1004.5	260.11	883.2	655.4	450.8	976.02	625.84	416.44	925.19	579.76	427.54	935.79	704.62	438.77	972.97	540.22	422.18	970.48	538.5	274.35	989.64	372.69	441.4	1082.7	326.51	403.37	1017.6	308.44	429.76	1050.4	390.99	420.88	1117.8	124.73	395.17	1145.6	150.93	305.39	1079.5	61.687	332.08	1110.1	47.242	303.99	1103.2	41.091	367.58	1264.4	130.88	436.64	1291.5	160.66	317.67	1329.6	210.91	376.84	582.6	706.16	84.804	639.19	611.25	79.225	563.91	618.11	101.38	650.82	704.59	60.869	574.43	520.86	87.442	610.24	511.44	228.76	468.95	406.12	79.227	495.39	300.5	101.99	442.06	333.08	85.482	522.89	371.61	91.331	357.82	130.48	133.26	388.5	138.72	226.79	281.96	113.9	181.25	289.11	88.52	215.42	285.1	86.334	152.7	486.92	39.627	112.45	516.01	45.115	232.84	578.81	46.487	181.18	698.23	1562	253.73	586.94	1254.3	273.82
426	1.7708	889.09	1234.1	234.82	792.36	1489.6	411.52	766.53	1506.8	83.511	882.45	1796.2	238	843.34	988.74	388.94	830.74	985.8	120.73	604.7	1033.6	316.02	593.69	1042	213.42	776.46	939.85	479.82	708.65	954.38	52.52	760.93	1089	459.8	713	1068.4	56.117	582.35	1003.8	260.91	889.71	654.56	450.79	982.42	624.95	416.2	931.59	578.9	427.42	942.29	703.74	438.66	979.36	539.32	421.94	976.36	537.6	274.21	995.7	371.79	441.3	1088.4	325.26	402.89	1023.4	307.43	429.62	1056.4	389.86	420.45	1122.9	123.52	394.89	1150.4	149.35	304.9	1084.1	60.674	332.09	1114.4	45.97	303.92	1107.8	40.065	367.56	1269.6	129.23	435.66	1296.2	158.71	316.42	1334.9	208.91	375.36	587.41	705.94	85.119	643.7	610.81	79.244	568.5	617.93	101.63	655.68	704.13	61.122	578.65	520.66	87.513	614.77	510.91	228.73	472.32	406.73	79.269	497.91	300.88	101.86	444.82	333.93	85.431	525.98	371.8	91.261	359.02	131.79	133.05	389.74	139.93	226.54	282.94	116.03	181.03	289.87	90.706	215.26	285.84	88.366	152.55	487.07	39.683	112.43	516.18	45.143	232.86	578.98	46.249	181.16	704.16	1561.1	255.1	592.99	1253.3	274.76
427	1.775	895.23	1233.4	235.44	798.46	1488.5	412.74	772.37	1506.2	84.751	888.27	1795.5	239.71	849.74	987.77	389.12	836.51	984.88	120.9	610.97	1032.8	316.79	599.73	1041.2	214.22	783.01	938.93	480.12	714.17	953.66	52.995	767.52	1087.9	460.35	718.95	1067.8	56.675	588.44	1003.1	261.72	896.21	653.72	450.77	988.83	624.04	415.98	937.98	578.03	427.3	948.83	702.85	438.58	985.75	538.41	421.68	982.27	536.72	274.07	1001.7	370.88	441.17	1094	323.94	402.38	1029.1	306.39	429.46	1062.3	388.68	419.98	1127.7	122.24	394.6	1154.8	147.64	304.4	1088.3	59.694	332.07	1118.4	44.677	303.83	1112	39.044	367.53	1274.5	127.35	434.66	1300.7	156.49	315.17	1339.9	206.59	373.88	592.3	705.72	85.439	648.31	610.38	79.261	573.19	617.74	101.89	660.62	703.69	61.371	582.98	520.45	87.585	619.4	510.37	228.7	475.79	407.37	79.308	500.5	301.29	101.72	447.67	334.81	85.376	529.17	372	91.184	360.29	133.15	132.82	391.05	141.18	226.28	283.98	118.25	180.8	290.68	92.982	215.09	286.62	90.484	152.39	487.22	39.741	112.41	516.35	45.178	232.87	579.14	46.014	181.15	710.11	1560.2	256.51	599.09	1252.4	275.72
428	1.7792	901.42	1232.7	236.08	804.59	1487.4	413.99	778.24	1505.7	86.021	894.11	1794.7	241.45	856.19	986.85	389.31	842.34	983.98	121.09	617.29	1032	317.57	605.82	1040.5	215.03	789.61	938.03	480.44	719.75	952.94	53.483	774.15	1086.9	460.91	725.01	1067.2	57.233	594.58	1002.3	262.54	902.71	652.89	450.75	995.25	623.12	415.78	944.37	577.16	427.16	955.38	701.96	438.53	992.13	537.49	421.41	988.2	535.86	273.93	1007.5	369.95	441.02	1099.5	322.54	401.84	1034.6	305.31	429.27	1068.2	387.44	419.49	1132.3	120.91	394.3	1159.1	145.84	303.88	1092.2	58.769	332.03	1122	43.384	303.73	1115.9	38.049	367.48	1279.2	125.25	433.65	1304.9	154.02	313.93	1344.7	203.95	372.41	597.29	705.49	85.769	653.02	609.94	79.277	577.97	617.55	102.15	665.64	703.26	61.618	587.41	520.24	87.658	624.15	509.82	228.67	479.35	408.03	79.346	503.17	301.72	101.58	450.61	335.73	85.319	532.44	372.22	91.102	361.61	134.57	132.56	392.44	142.47	226.01	285.09	120.56	180.55	291.55	95.351	214.9	287.47	92.69	152.22	487.38	39.801	112.38	516.51	45.22	232.89	579.31	45.781	181.13	716.1	1559.3	257.94	605.24	1251.4	276.68
